<?xml version="1.0" encoding="utf-8"?>
<!-- Generator: Adobe Illustrator 22.0.1, SVG Export Plug-In . SVG Version: 6.00 Build 0)  -->
<svg version="1.1" id="图层_1" xmlns="http://www.w3.org/2000/svg" xmlns:xlink="http://www.w3.org/1999/xlink" x="0px" y="0px"
	 viewBox="0 0 335 40" style="enable-background:new 0 0 335 40;" xml:space="preserve">
<style type="text/css">
	.st0{fill:#FFFFFF;}
	.st1{font-family:'BwModelica-Bold';}
	.st2{font-size:30px;}
	.st3{letter-spacing:-1;}
	.st4{font-family:'BwModelica-Regular';}
	.st5{opacity:0.5;fill:#FFFFFF;}
</style>
<g>
	<g>
		<g>
			<path class="st0" d="M38.8,12.2h2.3l1.8,3v1.4h0.8h7.8h0.3v-1v-0.5h0c0,0-1.1,0-1.9-1.4c0,0,0,0,0,0c0,0,0-0.1,0-0.1
				c0-0.1-0.1-0.1-0.1-0.2c0,0,0,0,0,0L49,12.2h0l-3.1-5.4h-7V12.2z"/>
			<path class="st0" d="M38.1,35.9C38.1,35.9,38.1,35.9,38.1,35.9l0-1.4h-6.8v1.4c0,0,0,0,0,0c0,2.5-1.6,2.9-2.7,2.9l2.7,0v0h-2.7
				v1.5h12.2v-1.5h-2.7v0l2.7,0C39.7,38.8,38.1,38.4,38.1,35.9z"/>
			<path class="st0" d="M51.9,24.9v-1h-0.3h-7.8h-0.8v1.4l-1.8,3h-3.1V5.6v-1c0,0,0,0,0,0c0-1.7,0.4-2.9,1.6-2.9h0v0V0.3h-1.6v0
				h-6.8v0h-1.6v1.5v0h0c1.1,0,1.6,1.2,1.6,2.9c0,0,0,0,0,0v2.1h-9V4.6c0,0,0,0,0,0c0-1.7,0.4-2.9,1.6-2.9h0v0V0.3h-1.6v0h-6.8v0H14
				v1.5v0h0c1.1,0,1.6,1.2,1.6,2.9c0,0,0,0,0,0v2.1H7.8l-0.6,1l-2.5,4.4l-2,3.5h0L0,20.3l2.7,4.6h0l2,3.5l2.5,4.4l0.6,1h7v-5.4h-2.3
				l-4.7-8.1l4.7-8.1h18.9v5.4h-9v-4.7h-6.8v23c0,0,0,0,0,0c0,2.5-1.6,2.9-2.7,2.9l2.7,0v0h-2.7v1.5H25v-1.5h-2.7v0l2.7,0
				c-1.1,0-2.7-0.4-2.7-2.9c0,0,0,0,0,0v-2.1h23.6l3.1-5.4h0l0.8-1.3c0,0,0,0,0,0c0-0.1,0.1-0.2,0.1-0.2c0,0,0-0.1,0-0.1
				c0,0,0-0.1,0.1-0.1c0.9-1.3,1.9-1.3,1.9-1.3h0V24.9z M31.3,28.4h-9V23h9V28.4z"/>
		</g>
		<g>
			<path class="st0" d="M73,30v-1.2c1.9,0,2.9-0.6,2.9-1.8V21c-0.2-0.1-0.5-0.2-0.8-0.2c-0.3-0.1-0.8-0.1-1.2-0.1h-3.5
				c-0.7,0-1.4,0.1-1.9,0.4v5.9c0,1.2,0.9,1.8,2.6,1.8V30H60.6v-1.2c2,0,3-0.6,3-1.8V14.1c0-1.5-1-2.3-3-2.3v-1.3H71v1.3
				c-1.8,0-2.6,0.8-2.6,2.3v4.8c0.3,0.1,0.6,0.2,0.9,0.2c0.3,0,0.6,0.1,1,0.1h3.5c1,0,1.7-0.1,2-0.2v-4.8c0-1.6-1-2.3-2.9-2.3v-1.3
				h10.4v1.3c-1.8,0-2.7,0.8-2.7,2.3v12.9c0,1.2,0.9,1.8,2.7,1.8V30H73z"/>
			<path class="st0" d="M95.7,27.3c-0.2,0.6-0.5,1.1-0.9,1.4c-0.4,0.4-0.8,0.7-1.3,1c-0.5,0.3-1,0.5-1.5,0.6c-0.5,0.1-1,0.2-1.5,0.2
				c-0.9,0-1.7-0.1-2.4-0.4c-0.7-0.3-1.4-0.7-1.9-1.2c-0.5-0.5-1-1.2-1.3-2s-0.5-1.7-0.5-2.7c0-2.2,0.6-3.9,1.9-5
				c1.2-1.2,3-1.8,5.2-1.8c0.5,0,0.9,0.1,1.4,0.2c0.5,0.1,0.9,0.3,1.3,0.6c0.4,0.3,0.7,0.6,0.9,0.9c0.2,0.4,0.3,0.8,0.3,1.2
				s-0.2,0.8-0.5,1.1c-0.3,0.3-0.7,0.5-1.2,0.5c-0.9,0-1.4-0.5-1.4-1.4c0-0.1,0-0.2,0.1-0.4c0-0.2,0.1-0.3,0.1-0.5
				c0-0.3-0.2-0.5-0.5-0.7c-0.3-0.1-0.6-0.2-1-0.2c-0.5,0-0.9,0.1-1.2,0.4c-0.3,0.3-0.6,0.7-0.7,1.1c-0.2,0.5-0.3,0.9-0.4,1.5
				c-0.1,0.5-0.1,1.1-0.1,1.6c0,0.7,0,1.4,0.1,2c0.1,0.6,0.2,1.2,0.5,1.6c0.2,0.5,0.5,0.8,0.9,1.1s0.9,0.4,1.5,0.4
				c1.2,0,2.2-0.6,3-1.8L95.7,27.3z"/>
			<path class="st0" d="M110.2,28.5c-0.2,0.6-0.6,1.1-1.2,1.4c-0.6,0.3-1.2,0.4-1.9,0.4c-0.6,0-1.1-0.1-1.7-0.4
				c-0.5-0.3-0.9-0.7-1.1-1.3c-0.6,0.5-1.2,0.9-1.8,1.2c-0.5,0.3-1.2,0.5-1.9,0.5c-1.1,0-1.9-0.2-2.6-0.7c-0.7-0.5-1-1.2-1-2.1
				c0-0.7,0.1-1.4,0.4-1.9c0.3-0.5,0.7-1,1.3-1.4c0.6-0.4,1.3-0.7,2.2-1c0.9-0.3,1.9-0.5,3.1-0.7v-0.9c0-0.9-0.1-1.5-0.2-2
				c-0.2-0.4-0.6-0.6-1.2-0.6c-0.6,0-1.2,0.1-1.6,0.3c-0.5,0.2-0.7,0.5-0.7,1c0.1,0.1,0.1,0.2,0.2,0.4c0,0.2,0.1,0.3,0.1,0.5
				c0,0.9-0.5,1.3-1.6,1.3c-0.8,0-1.3-0.5-1.3-1.5c0-0.5,0.1-0.9,0.3-1.3c0.2-0.4,0.5-0.8,1-1.1c0.4-0.3,1-0.6,1.7-0.8
				c0.7-0.2,1.5-0.3,2.5-0.3c0.6,0,1.2,0.1,1.8,0.2c0.6,0.1,1.1,0.4,1.5,0.7c0.4,0.3,0.8,0.7,1.1,1.2c0.3,0.5,0.4,1.1,0.4,1.8v6.2
				c0,0.6,0.3,0.9,0.8,0.9c0.1,0,0.3,0,0.4-0.1c0.1-0.1,0.3-0.2,0.5-0.2L110.2,28.5z M104.2,23.8c-1.1,0.2-2,0.5-2.5,0.9
				c-0.5,0.4-0.8,1.1-0.8,2.1c0,0.6,0.1,1.1,0.3,1.4c0.2,0.3,0.5,0.5,1.1,0.5c0.5,0,0.9-0.1,1.2-0.2c0.3-0.2,0.4-0.4,0.5-0.6
				c0.1-0.3,0.2-0.6,0.2-0.9s0-0.7,0.1-1V23.8z"/>
			<path class="st0" d="M119,21.6c-0.4-1-0.9-1.7-1.5-2.2c-0.6-0.5-1.2-0.7-1.8-0.7c-0.3,0-0.5,0-0.8,0.1c-0.3,0.1-0.5,0.2-0.8,0.3
				c-0.2,0.1-0.4,0.3-0.6,0.5c-0.1,0.2-0.2,0.5-0.2,0.8c0,0.3,0.1,0.6,0.4,0.8c0.3,0.2,0.6,0.4,1.1,0.6c0.4,0.2,0.8,0.3,1.3,0.4
				c0.4,0.1,0.8,0.2,1.1,0.3c0.4,0.2,0.9,0.3,1.3,0.5c0.4,0.2,0.8,0.4,1.1,0.7c0.3,0.3,0.6,0.6,0.8,1c0.2,0.4,0.3,0.9,0.3,1.5
				c0,0.7-0.1,1.3-0.4,1.8c-0.2,0.5-0.6,1-1,1.4c-0.4,0.4-0.9,0.7-1.5,0.9c-0.6,0.2-1.2,0.3-1.8,0.3s-1.1-0.1-1.5-0.2
				c-0.4-0.1-0.7-0.3-1-0.5c-0.2,0.2-0.5,0.3-0.8,0.4c-0.3,0.1-0.8,0.2-1.3,0.2c-0.1-0.7-0.2-1.5-0.2-2.3c0-0.8,0-1.7,0-2.6h1.4
				c0.2,0.7,0.4,1.3,0.6,1.8c0.2,0.5,0.4,0.8,0.7,1.1c0.3,0.3,0.6,0.5,0.9,0.6c0.4,0.1,0.8,0.2,1.3,0.2c1.5,0,2.2-0.5,2.3-1.4
				c0-0.5-0.2-1-0.5-1.3c-0.3-0.3-0.8-0.5-1.3-0.7c-0.5-0.2-1.1-0.4-1.7-0.5c-0.6-0.2-1.2-0.4-1.7-0.7s-0.9-0.6-1.3-1.1
				c-0.3-0.5-0.5-1.1-0.5-1.9c0-1.1,0.4-2.1,1.2-2.8c0.8-0.8,1.9-1.2,3.4-1.2c0.4,0,0.8,0,1.2,0.1c0.4,0.1,0.8,0.2,1.2,0.5
				c0.1-0.1,0.3-0.2,0.6-0.3c0.2-0.1,0.5-0.2,0.9-0.2c0.2,0.7,0.3,1.5,0.4,2.1s0.1,1.3,0.1,2H119z"/>
			<path class="st0" d="M130.4,30v-1.2c1.2,0,1.9-0.3,1.9-1v-4.4c0-1.3-0.2-2.2-0.5-2.9c-0.3-0.6-0.9-1-1.8-1c-0.9,0-1.6,0.2-2,0.7
				c-0.5,0.5-0.8,1.2-0.9,2.1v5.2c0,0.8,0.7,1.2,2.1,1.2V30h-7.8v-1.2c1.2,0,1.9-0.4,1.9-1.2V14.1c0-1.4-0.6-2.1-1.7-2.1v-1.1
				l5.6-0.9v9.6c0.5-0.6,1.1-1.1,1.9-1.4c0.7-0.3,1.5-0.5,2.4-0.5c0.6,0,1.2,0.1,1.8,0.3c0.6,0.2,1.1,0.4,1.5,0.7
				c0.4,0.3,0.8,0.7,1.1,1.2c0.3,0.5,0.4,1,0.4,1.7v6.3c0,0.7,0.7,1,2,1V30H130.4z"/>
		</g>
	</g>
	<g>
		<text transform="matrix(1 0 0 1 168.188 31.9116)"><tspan x="0" y="0" class="st0 st1 st2 st3">Omni </tspan><tspan x="81.7" y="0" class="st0 st4 st2 st3">Wallet</tspan></text>
	</g>
	<rect x="155.6" y="8.3" class="st5" width="0.7" height="24"/>
</g>
</svg>
